<svg width="176" height="176" viewBox="0 0 176 176" fill="none" xmlns="http://www.w3.org/2000/svg">
  <circle cx="88" cy="88" r="88" fill="#DEE3FF" fill-opacity="0.8" />
  <g clip-path="url(#clip0_22414_109177)">
    <path d="M123.862 51.3588L41.8489 75.3939L44.0212 82.8932L126.034 58.8582L123.862 51.3588Z"
      fill="#3F3D56" />
    <path
      d="M51.6473 109.841L39.5592 68.1096C39.4696 67.8002 39.5058 67.4677 39.66 67.1851C39.8141 66.9026 40.0735 66.6933 40.3811 66.6031L120.406 43.1507C120.713 43.0608 121.044 43.0974 121.325 43.2524C121.605 43.4074 121.814 43.6681 121.903 43.9773L132.613 80.9484L132.281 81.0456L121.572 44.0744C121.508 43.8537 121.359 43.6675 121.158 43.5569C120.958 43.4462 120.722 43.4199 120.502 43.4839L40.4776 66.9364C40.2579 67.0008 40.0726 67.1503 39.9626 67.3521C39.8525 67.5539 39.8266 67.7915 39.8906 68.0125L51.9786 109.744L51.6473 109.841Z"
      fill="#3F3D56" />
    <path
      d="M114.901 81.1203C114.658 81.1201 114.422 81.0408 114.227 80.8942C114.033 80.7477 113.891 80.5418 113.823 80.3074L111.796 73.308C111.713 73.0208 111.747 72.7121 111.89 72.4499C112.033 72.1877 112.273 71.9932 112.559 71.9092L119.518 69.8699C119.803 69.7865 120.11 69.8205 120.371 69.9645C120.631 70.1084 120.825 70.3505 120.908 70.6376L122.936 77.637C123.019 77.9243 122.985 78.2329 122.842 78.4951C122.699 78.7574 122.458 78.9518 122.173 79.0358L115.214 81.0752C115.112 81.1051 115.007 81.1203 114.901 81.1203Z"
      fill="#3444DA" />
    <path
      d="M51.4604 68.2388C51.4395 68.1669 51.4147 68.0962 51.3861 68.027C51.1916 67.552 50.8293 67.1661 50.3691 66.9434C49.9088 66.7207 49.383 66.677 48.8926 66.8206C48.4022 66.9642 47.9819 67.285 47.7124 67.7214C47.4429 68.1578 47.3432 68.679 47.4326 69.1848C47.4451 69.2586 47.4618 69.3316 47.4826 69.4035C47.6086 69.8362 47.8706 70.2161 48.2293 70.4865C48.588 70.7569 49.0241 70.9031 49.4723 70.9033C49.668 70.9037 49.8628 70.8756 50.0505 70.82C50.5773 70.6651 51.0216 70.3064 51.2859 69.8225C51.5502 69.3387 51.6129 68.7691 51.4604 68.2388ZM49.9538 70.4867C49.5144 70.6149 49.0424 70.5627 48.6413 70.3414C48.2401 70.1202 47.9426 69.7479 47.8139 69.3063C47.7937 69.2344 47.7776 69.1614 47.7656 69.0876C47.7008 68.6708 47.7892 68.2447 48.0142 67.8887C48.2392 67.5328 48.5854 67.2714 48.9881 67.1536C49.3907 67.0357 49.8223 67.0694 50.202 67.2484C50.5817 67.4274 50.8837 67.7393 51.0513 68.1259C51.0826 68.1938 51.1086 68.2641 51.129 68.336C51.2564 68.7779 51.2041 69.2527 50.9838 69.6559C50.7634 70.0591 50.393 70.3579 49.9538 70.4867V70.4867Z"
      fill="#3444DA" />
    <path
      d="M46.3811 69.7264C46.2707 69.3449 46.2813 68.9383 46.4115 68.5631C46.5417 68.188 46.7849 67.863 47.1074 67.6335C46.8053 67.6187 46.504 67.6767 46.2287 67.8027C45.9534 67.9287 45.7121 68.1191 45.5247 68.3579C45.3374 68.5968 45.2095 68.8772 45.1517 69.1758C45.0939 69.4745 45.1079 69.7827 45.1925 70.0747C45.2771 70.3668 45.4299 70.6344 45.6381 70.855C45.8463 71.0757 46.1039 71.2432 46.3895 71.3434C46.6751 71.4437 46.9803 71.4738 47.2798 71.4314C47.5793 71.3889 47.8644 71.2751 48.1113 71.0994C47.7168 71.08 47.3381 70.9373 47.0279 70.6912C46.7178 70.4451 46.4917 70.1078 46.3811 69.7264Z"
      fill="#3444DA" />
    <path
      d="M100.027 78.3292C99.9906 78.1963 99.9282 78.0721 99.8437 77.9635C99.7592 77.855 99.6542 77.7643 99.5348 77.6965C99.4154 77.6288 99.2839 77.5855 99.1478 77.5689C99.0117 77.5524 98.8737 77.563 98.7417 77.6001L87.2847 80.8236L86.0508 81.1707H93.7992L95.0331 80.8236L99.3043 79.6224C99.5705 79.5471 99.7962 79.3687 99.9318 79.1262C100.067 78.8838 100.102 78.5971 100.027 78.3292Z"
      fill="#CCCCCC" />
    <path
      d="M91.9216 75.9216C91.847 75.6537 91.6696 75.4266 91.4285 75.2902C91.1874 75.1538 90.9023 75.1193 90.6359 75.1943L73.4444 80.0303C73.2042 80.0988 72.9962 80.2513 72.8579 80.4604C72.7196 80.6695 72.6602 80.9214 72.6903 81.1707H77.1409L78.3764 80.8236L91.1986 77.2165C91.465 77.141 91.6908 76.9623 91.8264 76.7195C91.962 76.4767 91.9962 76.1898 91.9216 75.9216Z"
      fill="#CCCCCC" />
    <path
      d="M136.18 80.8231H52.8279C52.5076 80.8235 52.2006 80.9516 51.9741 81.1794C51.7476 81.4072 51.6202 81.7161 51.6199 82.0382V131.683C51.6202 132.005 51.7476 132.314 51.9741 132.542C52.2005 132.769 52.5076 132.898 52.8279 132.898H136.18C136.5 132.898 136.807 132.769 137.034 132.542C137.26 132.314 137.388 132.005 137.388 131.683V82.0382C137.388 81.7161 137.26 81.4072 137.034 81.1794C136.807 80.9516 136.5 80.8235 136.18 80.8231ZM137.043 131.683C137.043 131.913 136.952 132.134 136.79 132.296C136.628 132.459 136.409 132.551 136.18 132.551H52.8279C52.5991 132.551 52.3796 132.459 52.2178 132.296C52.056 132.134 51.9651 131.913 51.965 131.683V82.0382C51.9651 81.808 52.0561 81.5873 52.2178 81.4246C52.3796 81.2619 52.5991 81.1704 52.8279 81.1703H136.18C136.409 81.1704 136.628 81.2619 136.79 81.4246C136.952 81.5873 137.043 81.808 137.043 82.0382V131.683Z"
      fill="#3F3D56" />
    <path
      d="M60.938 87.5932C60.5285 87.5932 60.1281 87.4711 59.7875 87.2422C59.447 87.0133 59.1816 86.688 59.0248 86.3074C58.8681 85.9267 58.8271 85.5079 58.907 85.1039C58.9869 84.6998 59.1841 84.3287 59.4737 84.0373C59.7633 83.746 60.1323 83.5476 60.534 83.4673C60.9358 83.3869 61.3521 83.4281 61.7305 83.5858C62.1089 83.7435 62.4324 84.0104 62.6599 84.353C62.8875 84.6955 63.0089 85.0983 63.0089 85.5102C63.0083 86.0625 62.7899 86.5919 62.4017 86.9824C62.0134 87.3729 61.4871 87.5926 60.938 87.5932ZM60.938 83.7744C60.5967 83.7744 60.2631 83.8762 59.9793 84.0669C59.6955 84.2577 59.4743 84.5288 59.3437 84.846C59.2131 85.1631 59.1789 85.5122 59.2455 85.8489C59.3121 86.1856 59.4764 86.4949 59.7178 86.7376C59.9591 86.9804 60.2666 87.1457 60.6014 87.2127C60.9361 87.2797 61.2831 87.2453 61.5985 87.1139C61.9138 86.9825 62.1833 86.7601 62.3729 86.4746C62.5626 86.1892 62.6638 85.8535 62.6638 85.5102C62.6632 85.05 62.4813 84.6088 62.1577 84.2834C61.8342 83.958 61.3956 83.7749 60.938 83.7744Z"
      fill="#3444DA" />
    <path
      d="M57.7193 85.5102C57.7194 85.1129 57.8426 84.7255 58.0719 84.4019C58.3012 84.0784 58.6252 83.8348 58.9986 83.7052C58.7126 83.606 58.4073 83.5769 58.1079 83.6205C57.8086 83.664 57.5239 83.7788 57.2776 83.9554C57.0313 84.132 56.8305 84.3653 56.692 84.6357C56.5535 84.9062 56.4812 85.206 56.4812 85.5102C56.4812 85.8145 56.5535 86.1143 56.692 86.3848C56.8305 86.6552 57.0313 86.8884 57.2776 87.065C57.5239 87.2416 57.8086 87.3565 58.1079 87.4C58.4073 87.4435 58.7126 87.4145 58.9986 87.3152C58.6252 87.1856 58.3012 86.9421 58.0719 86.6185C57.8426 86.295 57.7194 85.9076 57.7193 85.5102Z"
      fill="#3444DA" />
    <path
      d="M69.3327 110.12C68.9209 110.12 68.5261 109.955 68.235 109.662C67.9438 109.37 67.78 108.972 67.7795 108.558V103.872C67.7795 103.457 67.9432 103.06 68.2344 102.767C68.5257 102.474 68.9208 102.309 69.3327 102.309C69.7446 102.309 70.1397 102.474 70.4309 102.767C70.7222 103.06 70.8858 103.457 70.8858 103.872V108.558C70.8854 108.972 70.7216 109.37 70.4304 109.662C70.1392 109.955 69.7445 110.12 69.3327 110.12Z"
      fill="#3444DA" />
    <path
      d="M73.4743 110.12C73.0625 110.12 72.6677 109.955 72.3766 109.662C72.0854 109.37 71.9216 108.972 71.9211 108.558V103.872C71.9211 103.457 72.0848 103.06 72.376 102.767C72.6673 102.474 73.0624 102.309 73.4743 102.309C73.8862 102.309 74.2812 102.474 74.5725 102.767C74.8638 103.06 75.0274 103.457 75.0274 103.872V108.558C75.027 108.972 74.8632 109.37 74.572 109.662C74.2808 109.955 73.8861 110.12 73.4743 110.12Z"
      fill="#3444DA" />
    <path
      d="M77.6161 110.12C77.2044 110.12 76.8096 109.955 76.5184 109.662C76.2273 109.37 76.0635 108.972 76.063 108.558V103.872C76.063 103.457 76.2266 103.06 76.5179 102.767C76.8092 102.474 77.2042 102.309 77.6161 102.309C78.0281 102.309 78.4231 102.474 78.7144 102.767C79.0056 103.06 79.1693 103.457 79.1693 103.872V108.558C79.1688 108.972 79.005 109.37 78.7139 109.662C78.4227 109.955 78.0279 110.12 77.6161 110.12Z"
      fill="#3444DA" />
    <path
      d="M84.0011 110.12C83.5894 110.12 83.1946 109.955 82.9034 109.662C82.6123 109.37 82.4485 108.972 82.448 108.558V103.872C82.448 103.457 82.6116 103.06 82.9029 102.767C83.1942 102.474 83.5892 102.309 84.0011 102.309C84.4131 102.309 84.8081 102.474 85.0994 102.767C85.3907 103.06 85.5543 103.457 85.5543 103.872V108.558C85.5538 108.972 85.39 109.37 85.0989 109.662C84.8077 109.955 84.4129 110.12 84.0011 110.12Z"
      fill="#3444DA" />
    <path
      d="M88.143 110.12C87.7312 110.12 87.3364 109.955 87.0453 109.662C86.7541 109.37 86.5903 108.972 86.5898 108.558V103.872C86.5898 103.457 86.7535 103.06 87.0448 102.767C87.336 102.474 87.7311 102.309 88.143 102.309C88.5549 102.309 88.95 102.474 89.2412 102.767C89.5325 103.06 89.6961 103.457 89.6961 103.872V108.558C89.6957 108.972 89.5319 109.37 89.2407 109.662C88.9495 109.955 88.5548 110.12 88.143 110.12Z"
      fill="#3444DA" />
    <path
      d="M92.2846 110.12C91.8728 110.12 91.478 109.955 91.1869 109.662C90.8957 109.37 90.7319 108.972 90.7314 108.558V103.872C90.7314 103.457 90.8951 103.06 91.1864 102.767C91.4776 102.474 91.8727 102.309 92.2846 102.309C92.6965 102.309 93.0916 102.474 93.3828 102.767C93.6741 103.06 93.8377 103.457 93.8377 103.872V108.558C93.8373 108.972 93.6735 109.37 93.3823 109.662C93.0911 109.955 92.6964 110.12 92.2846 110.12Z"
      fill="#3444DA" />
    <path
      d="M98.6698 110.12C98.2581 110.12 97.8633 109.955 97.5721 109.662C97.281 109.37 97.1172 108.972 97.1167 108.558V103.872C97.1167 103.457 97.2803 103.06 97.5716 102.767C97.8629 102.474 98.2579 102.309 98.6698 102.309C99.0818 102.309 99.4768 102.474 99.7681 102.767C100.059 103.06 100.223 103.457 100.223 103.872V108.558C100.223 108.972 100.059 109.37 99.7676 109.662C99.4764 109.955 99.0816 110.12 98.6698 110.12Z"
      fill="#3444DA" />
    <path
      d="M102.811 110.12C102.4 110.12 102.005 109.955 101.714 109.662C101.423 109.37 101.259 108.972 101.258 108.558V103.872C101.258 103.457 101.422 103.06 101.713 102.767C102.004 102.474 102.4 102.309 102.811 102.309C103.223 102.309 103.618 102.474 103.91 102.767C104.201 103.06 104.365 103.457 104.365 103.872V108.558C104.364 108.972 104.2 109.37 103.909 109.662C103.618 109.955 103.223 110.12 102.811 110.12Z"
      fill="#3444DA" />
    <path
      d="M106.953 110.12C106.542 110.12 106.147 109.955 105.856 109.662C105.564 109.37 105.401 108.972 105.4 108.558V103.872C105.4 103.457 105.564 103.06 105.855 102.767C106.146 102.474 106.541 102.309 106.953 102.309C107.365 102.309 107.76 102.474 108.052 102.767C108.343 103.06 108.506 103.457 108.506 103.872V108.558C108.506 108.972 108.342 109.37 108.051 109.662C107.76 109.955 107.365 110.12 106.953 110.12Z"
      fill="#3444DA" />
    <path
      d="M113.338 110.12C112.927 110.12 112.532 109.955 112.241 109.662C111.949 109.37 111.786 108.972 111.785 108.558V103.872C111.785 103.457 111.949 103.06 112.24 102.767C112.531 102.474 112.926 102.309 113.338 102.309C113.75 102.309 114.145 102.474 114.437 102.767C114.728 103.06 114.891 103.457 114.891 103.872V108.558C114.891 108.972 114.727 109.37 114.436 109.662C114.145 109.955 113.75 110.12 113.338 110.12Z"
      fill="#3444DA" />
    <path
      d="M117.48 110.12C117.068 110.12 116.674 109.955 116.382 109.662C116.091 109.37 115.927 108.972 115.927 108.558V103.872C115.927 103.457 116.091 103.06 116.382 102.767C116.673 102.474 117.068 102.309 117.48 102.309C117.892 102.309 118.287 102.474 118.578 102.767C118.87 103.06 119.033 103.457 119.033 103.872V108.558C119.033 108.972 118.869 109.37 118.578 109.662C118.287 109.955 117.892 110.12 117.48 110.12Z"
      fill="#3444DA" />
    <path
      d="M121.622 110.12C121.21 110.12 120.815 109.955 120.524 109.662C120.233 109.37 120.069 108.972 120.069 108.558V103.872C120.069 103.457 120.232 103.06 120.524 102.767C120.815 102.474 121.21 102.309 121.622 102.309C122.034 102.309 122.429 102.474 122.72 102.767C123.011 103.06 123.175 103.457 123.175 103.872V108.558C123.174 108.972 123.011 109.37 122.719 109.662C122.428 109.955 122.034 110.12 121.622 110.12Z"
      fill="#3444DA" />
    <path
      d="M79.8625 127.508H57.5248C57.248 127.508 56.9826 127.397 56.7869 127.2C56.5912 127.003 56.4812 126.736 56.4812 126.458C56.4812 126.18 56.5912 125.913 56.7869 125.716C56.9826 125.519 57.248 125.408 57.5248 125.408H79.8625C80.1393 125.408 80.4048 125.519 80.6005 125.716C80.7962 125.913 80.9061 126.18 80.9061 126.458C80.9061 126.736 80.7962 127.003 80.6005 127.2C80.4048 127.397 80.1393 127.508 79.8625 127.508Z"
      fill="#E6E6E6" />
    <path
      d="M72.701 122.995H64.6867C64.4099 122.995 64.1444 122.884 63.9487 122.687C63.753 122.49 63.6431 122.223 63.6431 121.945C63.6431 121.666 63.753 121.399 63.9487 121.203C64.1444 121.006 64.4099 120.895 64.6867 120.895H72.701C72.9777 120.895 73.2432 121.006 73.4389 121.203C73.6346 121.399 73.7446 121.666 73.7446 121.945C73.7446 122.223 73.6346 122.49 73.4389 122.687C73.2432 122.884 72.9777 122.995 72.701 122.995Z"
      fill="#E6E6E6" />
    <path d="M136.981 91.2H51.9028V91.5471H136.981V91.2Z" fill="#3F3D56" />
  </g>
  <defs>
    <clipPath id="clip0_22414_109177">
      <rect width="97.8775" height="89.7959" fill="white" transform="translate(39.5105 43.102)" />
    </clipPath>
  </defs>
</svg>
  